<svg width="148" height="127" viewBox="0 0 148 127" fill="none" xmlns="http://www.w3.org/2000/svg">
<path d="M75.5 124C94.5959 124 112.053 120.2 124.76 109.549C137.572 98.8109 145 81.587 145 56C145 43.2236 143.059 33.353 139.351 25.775C135.609 18.1289 130.145 12.9798 123.442 9.57522C116.812 6.20789 109.063 4.59276 100.755 3.79499C92.4768 2.99998 83.4131 2.99999 74.092 3H74H73.908C64.5869 2.99999 55.5232 2.99998 47.2445 3.79499C38.937 4.59276 31.1881 6.20789 24.5581 9.57522C17.8548 12.9798 12.3909 18.1289 8.64905 25.775C4.9405 33.3531 2.99994 43.2236 3 56C3.00012 81.6847 11.2415 98.9061 24.8091 109.606C38.2423 120.199 56.4023 124 75.5 124Z" fill="#1E1E1E" stroke="#E1FF27" stroke-width="6"/>
<circle cx="74" cy="23.5" r="12" fill="white"/>
<circle cx="48" cy="23.5" r="12" fill="white"/>
<circle cx="100" cy="23.5" r="12" fill="white"/>
<circle cx="74" cy="49.5" r="12" fill="white"/>
<circle cx="48" cy="97.5" r="9" fill="white"/>
<circle cx="100" cy="97.5" r="9" fill="white"/>
<circle cx="74" cy="97.5" r="12" fill="white"/>
<path d="M123 66.5C123 75.8888 115.389 83.5 106 83.5C96.6112 83.5 89 75.8888 89 66.5C89 57.1112 96.6112 49.5 106 49.5C115.389 49.5 123 57.1112 123 66.5ZM97.5 66.5C97.5 71.1944 101.306 75 106 75C110.694 75 114.5 71.1944 114.5 66.5C114.5 61.8056 110.694 58 106 58C101.306 58 97.5 61.8056 97.5 66.5Z" fill="white"/>
<path d="M59 66.5C59 75.8888 51.3888 83.5 42 83.5C32.6112 83.5 25 75.8888 25 66.5C25 57.1112 32.6112 49.5 42 49.5C51.3888 49.5 59 57.1112 59 66.5ZM33.5 66.5C33.5 71.1944 37.3056 75 42 75C46.6944 75 50.5 71.1944 50.5 66.5C50.5 61.8056 46.6944 58 42 58C37.3056 58 33.5 61.8056 33.5 66.5Z" fill="white"/>
</svg>
