<svg width="148" height="131" viewBox="0 0 148 131" fill="none" xmlns="http://www.w3.org/2000/svg">
<path d="M75.5 128C114.68 128 145 97.3109 145 60V59.9753V59.7987C145 51.036 145 43.0199 143.926 36.0625C142.834 28.9919 140.595 22.7173 135.896 17.6051C131.208 12.5051 124.361 8.87659 114.656 6.51179C104.969 4.15175 92.229 3 75.5001 3C58.026 3 44.7345 4.15189 34.6389 6.50652C24.5312 8.86398 17.4072 12.4779 12.5236 17.5637C7.61624 22.6743 5.26876 28.961 4.12422 36.0566C2.99989 43.0269 2.99994 51.0553 3 59.8166L3 60C3 97.4796 36.4955 128 75.5 128Z" fill="#1E1E1E" stroke="#E1FF27" stroke-width="6"/>
<circle cx="51.9993" cy="23" r="12" fill="white"/>
<circle cx="95.9993" cy="23" r="12" fill="white"/>
<circle cx="73.9993" cy="56" r="18" fill="white"/>
<path d="M137.999 56C137.999 66.4934 129.493 75 118.999 75C108.506 75 99.9993 66.4934 99.9993 56C99.9993 45.5066 108.506 37 118.999 37C129.493 37 137.999 45.5066 137.999 56ZM109.499 56C109.499 61.2467 113.753 65.5 118.999 65.5C124.246 65.5 128.499 61.2467 128.499 56C128.499 50.7533 124.246 46.5 118.999 46.5C113.753 46.5 109.499 50.7533 109.499 56Z" fill="white"/>
<path d="M114.999 94C114.999 104.493 106.493 113 95.9993 113C85.5059 113 76.9993 104.493 76.9993 94C76.9993 83.5066 85.5059 75 95.9993 75C106.493 75 114.999 83.5066 114.999 94ZM86.4993 94C86.4993 99.2467 90.7526 103.5 95.9993 103.5C101.246 103.5 105.499 99.2467 105.499 94C105.499 88.7533 101.246 84.5 95.9993 84.5C90.7526 84.5 86.4993 88.7533 86.4993 94Z" fill="white"/>
<path d="M70.9993 94C70.9993 104.493 62.4927 113 51.9993 113C41.5059 113 32.9993 104.493 32.9993 94C32.9993 83.5066 41.5059 75 51.9993 75C62.4927 75 70.9993 83.5066 70.9993 94ZM42.4993 94C42.4993 99.2467 46.7526 103.5 51.9993 103.5C57.246 103.5 61.4993 99.2467 61.4993 94C61.4993 88.7533 57.246 84.5 51.9993 84.5C46.7526 84.5 42.4993 88.7533 42.4993 94Z" fill="white"/>
<path d="M47.9993 56C47.9993 66.4934 39.4927 75 28.9993 75C18.5059 75 9.99927 66.4934 9.99927 56C9.99927 45.5066 18.5059 37 28.9993 37C39.4927 37 47.9993 45.5066 47.9993 56ZM19.4993 56C19.4993 61.2467 23.7526 65.5 28.9993 65.5C34.246 65.5 38.4993 61.2467 38.4993 56C38.4993 50.7533 34.246 46.5 28.9993 46.5C23.7526 46.5 19.4993 50.7533 19.4993 56Z" fill="white"/>
</svg>
