<svg width="148" height="131" viewBox="0 0 148 131" fill="none" xmlns="http://www.w3.org/2000/svg">
<path d="M75.5 128C114.68 128 145 97.3109 145 60V59.9753V59.7987C145 51.036 145 43.0199 143.926 36.0625C142.834 28.9919 140.595 22.7173 135.896 17.6051C131.208 12.5051 124.361 8.87659 114.656 6.51179C104.969 4.15175 92.229 3 75.5001 3C58.026 3 44.7345 4.15189 34.6389 6.50652C24.5312 8.86398 17.4072 12.4779 12.5236 17.5637C7.61624 22.6743 5.26876 28.961 4.12422 36.0566C2.99989 43.0269 2.99994 51.0553 3 59.8166L3 60C3 97.4796 36.4955 128 75.5 128Z" fill="#1E1E1E" stroke="#E1FF27" stroke-width="6"/>
<circle cx="74" cy="106" r="12" fill="white"/>
<circle cx="104" cy="108" r="4" fill="white"/>
<circle cx="45" cy="108" r="4" fill="white"/>
<path d="M130 47C130 57.4934 121.493 66 111 66C100.507 66 92 57.4934 92 47C92 36.5066 100.507 28 111 28C121.493 28 130 36.5066 130 47ZM101.5 47C101.5 52.2467 105.753 56.5 111 56.5C116.247 56.5 120.5 52.2467 120.5 47C120.5 41.7533 116.247 37.5 111 37.5C105.753 37.5 101.5 41.7533 101.5 47Z" fill="white"/>
<path d="M57 47C57 57.4934 48.4934 66 38 66C27.5066 66 19 57.4934 19 47C19 36.5066 27.5066 28 38 28C48.4934 28 57 36.5066 57 47ZM28.5 47C28.5 52.2467 32.7533 56.5 38 56.5C43.2467 56.5 47.5 52.2467 47.5 47C47.5 41.7533 43.2467 37.5 38 37.5C32.7533 37.5 28.5 41.7533 28.5 47Z" fill="white"/>
<path d="M104 12C104 9.5 74.5 12 74.5 12V83.5C74.5 83.5 93.1026 83.8702 104 88C122.067 94.8468 116.664 96.264 121.5 99C126.336 101.736 142 72 135.5 68C129 64 98 82.5 88.5 53.5C79 24.5 104 14.5 104 12Z" fill="white" stroke="white" stroke-width="3" stroke-linecap="round"/>
<path d="M44.0559 12.1111C44.0559 9.61111 73.5559 12.1111 73.5559 12.1111V83.6111C73.5559 83.6111 54.9533 83.9813 44.0559 88.1111C25.9891 94.9579 31.3924 96.3751 26.5559 99.1111C21.7194 101.847 6.05591 72.1111 12.5559 68.1111C19.0559 64.1111 50.0559 82.6111 59.5559 53.6111C69.0559 24.6111 44.0559 14.6111 44.0559 12.1111Z" fill="white" stroke="white" stroke-width="3" stroke-linecap="round"/>
</svg>
