<svg width="561" height="883" viewBox="0 0 561 883" fill="none" xmlns="http://www.w3.org/2000/svg">
<path d="M415.5 346C454.68 346 485 315.311 485 278V277.975V277.799C485 269.036 485 261.02 483.926 254.063C482.834 246.992 480.595 240.717 475.896 235.605C471.208 230.505 464.361 226.877 454.656 224.512C444.969 222.152 432.229 221 415.5 221C398.026 221 384.734 222.152 374.639 224.507C364.531 226.864 357.407 230.478 352.524 235.564C347.616 240.674 345.269 246.961 344.124 254.057C343 261.027 343 269.055 343 277.817L343 278C343 315.48 376.495 346 415.5 346Z" fill="#1E1E1E" stroke="#FF9C27" stroke-width="6"/>
<circle cx="414" cy="324" r="12" fill="white"/>
<circle cx="444" cy="326" r="4" fill="white"/>
<circle cx="385" cy="326" r="4" fill="white"/>
<path d="M470 265C470 275.493 461.493 284 451 284C440.507 284 432 275.493 432 265C432 254.507 440.507 246 451 246C461.493 246 470 254.507 470 265ZM441.5 265C441.5 270.247 445.753 274.5 451 274.5C456.247 274.5 460.5 270.247 460.5 265C460.5 259.753 456.247 255.5 451 255.5C445.753 255.5 441.5 259.753 441.5 265Z" fill="white"/>
<path d="M397 265C397 275.493 388.493 284 378 284C367.507 284 359 275.493 359 265C359 254.507 367.507 246 378 246C388.493 246 397 254.507 397 265ZM368.5 265C368.5 270.247 372.753 274.5 378 274.5C383.247 274.5 387.5 270.247 387.5 265C387.5 259.753 383.247 255.5 378 255.5C372.753 255.5 368.5 259.753 368.5 265Z" fill="white"/>
<path d="M444 230C444 227.5 414.5 230 414.5 230V301.5C414.5 301.5 433.103 301.87 444 306C462.067 312.847 456.664 314.264 461.5 317C466.336 319.736 482 290 475.5 286C469 282 438 300.5 428.5 271.5C419 242.5 444 232.5 444 230Z" fill="white" stroke="white" stroke-width="3" stroke-linecap="round"/>
<path d="M384.056 230.111C384.056 227.611 413.556 230.111 413.556 230.111V301.611C413.556 301.611 394.953 301.981 384.056 306.111C365.989 312.958 371.392 314.375 366.556 317.111C361.719 319.847 346.056 290.111 352.556 286.111C359.056 282.111 390.056 300.611 399.556 271.611C409.056 242.611 384.056 232.611 384.056 230.111Z" fill="white" stroke="white" stroke-width="3" stroke-linecap="round"/>
<path d="M166.401 91.5458C166.401 91.5458 212.818 29.3559 240.985 4.70881C273.462 -23.7112 376.316 84.6256 347.901 113.046C343.842 117.106 284.401 191.546 284.401 191.546C284.401 191.546 250.355 150.313 225.401 128.046C199.457 104.895 166.401 91.5458 166.401 91.5458C166.401 91.5458 65.8851 354.738 33.9384 272.047C32.1317 267.37 30.3563 266.69 29.8787 259.868C29.4011 253.046 46.8938 222.803 62.3565 198.972C62.3565 198.972 151.671 77.1805 155.73 69.061C159.79 60.9416 163.401 64.8601 164.401 65.5457C169.768 69.2255 166.401 91.5458 166.401 91.5458Z" fill="white"/>
<path d="M50.1622 580.586C30.2411 578.28 5.50395 572.467 1.44551 564.347C-0.695514 560.064 16.6881 490.249 25.8204 422.257C33.984 361.476 33.9319 302.152 33.9233 292.399L33.9233 292.346C33.9055 272.047 90.7594 182.733 90.7594 182.733C90.7594 182.733 151.655 89.3599 163.834 89.3599C176.014 89.3599 215.701 104.952 239.901 126.046C263.624 146.723 285.626 186.793 285.626 194.913C285.626 203.032 208.491 280.167 208.491 280.167C208.491 280.167 127.297 353.242 127.297 361.361C127.297 369.481 115.118 564.347 111.058 572.467C106.998 580.586 73.9948 583.345 50.1622 580.586Z" fill="#FF9C27" stroke="#FF9C27"/>
<path d="M0.900838 562.046L112.401 568.046V572.546C112.401 572.546 111.687 597.17 102.954 609.005C97.02 617.046 87.692 616.906 81.9008 625.243C76.1806 633.479 66.4008 649.602 66.4008 649.602V848.528V882.046H463.401V725.046V646.546L459.401 628.546V553.546L487.401 534.046H527.651V557.546H544.526H557.901C557.901 557.546 560.401 559.898 560.401 562.046C560.401 564.194 557.901 566.546 557.901 566.546H544.526H527.651V587.546L491.901 586.046V613.546V628.546L486.401 660.546L494.901 882.046H463.401H66.4008H39.9008V848.528V649.602C39.9008 649.602 29.7841 633.703 24.4008 625.243C19.5858 617.677 8.90113 616.046 5.52028 609.005C-2.12852 593.075 0.400838 564.046 0.400838 564.046L0.900838 562.046Z" fill="white"/>
<path d="M157.901 271.546L166.401 231.546H138.401L173.901 177.046L166.401 218.546H192.901L157.901 271.546Z" fill="white"/>
<path d="M157.901 271.546L166.401 231.546H138.401L173.901 177.046L166.401 218.546H192.901L157.901 271.546Z" fill="#1E1E1E"/>
<path d="M157.901 271.546L166.401 231.546H138.401L173.901 177.046L166.401 218.546H192.901L157.901 271.546Z" stroke="#1E1E1E" stroke-linejoin="round"/>
</svg>
