<svg width="561" height="883" viewBox="0 0 561 883" fill="none" xmlns="http://www.w3.org/2000/svg">
<path d="M166.401 91.5458C166.401 91.5458 212.818 29.3559 240.985 4.70881C273.462 -23.7112 376.316 84.6256 347.901 113.046C343.842 117.106 284.401 191.546 284.401 191.546C284.401 191.546 250.355 150.313 225.401 128.046C199.457 104.895 166.401 91.5458 166.401 91.5458C166.401 91.5458 65.8851 354.738 33.9384 272.047C32.1317 267.37 30.3563 266.69 29.8787 259.868C29.4011 253.046 46.8938 222.803 62.3565 198.972C62.3565 198.972 151.671 77.1805 155.73 69.061C159.79 60.9416 163.401 64.8601 164.401 65.5457C169.768 69.2255 166.401 91.5458 166.401 91.5458Z" fill="white"/>
<path d="M50.1622 580.586C30.2411 578.28 5.50395 572.467 1.44551 564.347C-0.695514 560.064 16.6881 490.249 25.8204 422.257C33.984 361.476 33.9319 302.152 33.9233 292.399L33.9233 292.346C33.9055 272.047 90.7594 182.733 90.7594 182.733C90.7594 182.733 151.655 89.3599 163.834 89.3599C176.014 89.3599 215.701 104.952 239.901 126.046C263.624 146.723 285.626 186.793 285.626 194.913C285.626 203.032 208.491 280.167 208.491 280.167C208.491 280.167 127.297 353.242 127.297 361.361C127.297 369.481 115.118 564.347 111.058 572.467C106.998 580.586 73.9948 583.345 50.1622 580.586Z" fill="#8627FF" stroke="#8627FF"/>
<path d="M0.900838 562.046L112.401 568.046V572.546C112.401 572.546 111.687 597.17 102.954 609.005C97.02 617.046 87.692 616.906 81.9008 625.243C76.1806 633.479 66.4008 649.602 66.4008 649.602V848.528V882.046H463.401V725.046V646.546L459.401 628.546V553.546L487.401 534.046H527.651V557.546H544.526H557.901C557.901 557.546 560.401 559.898 560.401 562.046C560.401 564.194 557.901 566.546 557.901 566.546H544.526H527.651V587.546L491.901 586.046V613.546V628.546L486.401 660.546L494.901 882.046H463.401H66.4008H39.9008V848.528V649.602C39.9008 649.602 29.7841 633.703 24.4008 625.243C19.5858 617.677 8.90113 616.046 5.52028 609.005C-2.12852 593.075 0.400838 564.046 0.400838 564.046L0.900838 562.046Z" fill="white"/>
<path d="M157.901 271.546L166.401 231.546H138.401L173.901 177.046L166.401 218.546H192.901L157.901 271.546Z" fill="white"/>
<path d="M157.901 271.546L166.401 231.546H138.401L173.901 177.046L166.401 218.546H192.901L157.901 271.546Z" fill="#1E1E1E"/>
<path d="M157.901 271.546L166.401 231.546H138.401L173.901 177.046L166.401 218.546H192.901L157.901 271.546Z" stroke="#1E1E1E" stroke-linejoin="round"/>
<path d="M416.5 346C455.68 346 486 315.311 486 278V277.975V277.799C486 269.036 486 261.02 484.926 254.063C483.834 246.992 481.595 240.717 476.896 235.605C472.208 230.505 465.361 226.877 455.656 224.512C445.969 222.152 433.229 221 416.5 221C399.026 221 385.734 222.152 375.639 224.507C365.531 226.864 358.407 230.478 353.524 235.564C348.616 240.674 346.269 246.961 345.124 254.057C344 261.027 344 269.055 344 277.817L344 278C344 315.48 377.495 346 416.5 346Z" fill="#1E1E1E" stroke="#8627FF" stroke-width="6"/>
<circle cx="392.999" cy="241" r="12" fill="white"/>
<circle cx="436.999" cy="241" r="12" fill="white"/>
<circle cx="414.999" cy="274" r="18" fill="white"/>
<path d="M478.999 274C478.999 284.493 470.493 293 459.999 293C449.506 293 440.999 284.493 440.999 274C440.999 263.507 449.506 255 459.999 255C470.493 255 478.999 263.507 478.999 274ZM450.499 274C450.499 279.247 454.753 283.5 459.999 283.5C465.246 283.5 469.499 279.247 469.499 274C469.499 268.753 465.246 264.5 459.999 264.5C454.753 264.5 450.499 268.753 450.499 274Z" fill="white"/>
<path d="M455.999 312C455.999 322.493 447.493 331 436.999 331C426.506 331 417.999 322.493 417.999 312C417.999 301.507 426.506 293 436.999 293C447.493 293 455.999 301.507 455.999 312ZM427.499 312C427.499 317.247 431.753 321.5 436.999 321.5C442.246 321.5 446.499 317.247 446.499 312C446.499 306.753 442.246 302.5 436.999 302.5C431.753 302.5 427.499 306.753 427.499 312Z" fill="white"/>
<path d="M411.999 312C411.999 322.493 403.493 331 392.999 331C382.506 331 373.999 322.493 373.999 312C373.999 301.507 382.506 293 392.999 293C403.493 293 411.999 301.507 411.999 312ZM383.499 312C383.499 317.247 387.753 321.5 392.999 321.5C398.246 321.5 402.499 317.247 402.499 312C402.499 306.753 398.246 302.5 392.999 302.5C387.753 302.5 383.499 306.753 383.499 312Z" fill="white"/>
<path d="M388.999 274C388.999 284.493 380.493 293 369.999 293C359.506 293 350.999 284.493 350.999 274C350.999 263.507 359.506 255 369.999 255C380.493 255 388.999 263.507 388.999 274ZM360.499 274C360.499 279.247 364.753 283.5 369.999 283.5C375.246 283.5 379.499 279.247 379.499 274C379.499 268.753 375.246 264.5 369.999 264.5C364.753 264.5 360.499 268.753 360.499 274Z" fill="white"/>
</svg>
