<svg width="561" height="883" viewBox="0 0 561 883" fill="none" xmlns="http://www.w3.org/2000/svg">
<path d="M166.401 91.5458C166.401 91.5458 212.818 29.3559 240.985 4.70881C273.462 -23.7112 376.316 84.6256 347.901 113.046C343.842 117.106 284.401 191.546 284.401 191.546C284.401 191.546 250.355 150.313 225.401 128.046C199.457 104.895 166.401 91.5458 166.401 91.5458C166.401 91.5458 65.8851 354.738 33.9384 272.047C32.1317 267.37 30.3563 266.69 29.8787 259.868C29.4011 253.046 46.8938 222.803 62.3565 198.972C62.3565 198.972 151.671 77.1805 155.73 69.061C159.79 60.9416 163.401 64.8601 164.401 65.5457C169.768 69.2255 166.401 91.5458 166.401 91.5458Z" fill="white"/>
<path d="M50.1622 580.586C30.2411 578.28 5.50399 572.467 1.44554 564.347C-0.695484 560.064 16.6882 490.249 25.8204 422.257C33.984 361.476 33.9319 302.152 33.9234 292.399L33.9233 292.346C33.9056 272.047 90.7595 182.733 90.7595 182.733C90.7595 182.733 151.655 89.3599 163.834 89.3599C176.014 89.3599 215.701 104.952 239.901 126.046C263.624 146.723 285.626 186.793 285.626 194.913C285.626 203.032 208.491 280.167 208.491 280.167C208.491 280.167 127.297 353.242 127.297 361.361C127.297 369.481 115.118 564.347 111.058 572.467C106.998 580.586 73.9948 583.345 50.1622 580.586Z" fill="#E1FF27" stroke="#E1FF27"/>
<path d="M0.900838 562.046L112.401 568.046V572.546C112.401 572.546 111.687 597.17 102.954 609.005C97.02 617.046 87.692 616.906 81.9008 625.243C76.1806 633.479 66.4008 649.602 66.4008 649.602V848.528V882.046H463.401V725.046V646.546L459.401 628.546V553.546L487.401 534.046H527.651V557.546H544.526H557.901C557.901 557.546 560.401 559.898 560.401 562.046C560.401 564.194 557.901 566.546 557.901 566.546H544.526H527.651V587.546L491.901 586.046V613.546V628.546L486.401 660.546L494.901 882.046H463.401H66.4008H39.9008V848.528V649.602C39.9008 649.602 29.7841 633.703 24.4008 625.243C19.5858 617.677 8.90113 616.046 5.52028 609.005C-2.12852 593.075 0.400838 564.046 0.400838 564.046L0.900838 562.046Z" fill="white"/>
<path d="M157.901 271.546L166.401 231.546H138.401L173.901 177.046L166.401 218.546H192.901L157.901 271.546Z" fill="white"/>
<path d="M157.901 271.546L166.401 231.546H138.401L173.901 177.046L166.401 218.546H192.901L157.901 271.546Z" fill="#1E1E1E"/>
<path d="M157.901 271.546L166.401 231.546H138.401L173.901 177.046L166.401 218.546H192.901L157.901 271.546Z" stroke="#1E1E1E" stroke-linejoin="round"/>
<path d="M422.5 342C441.596 342 459.053 338.2 471.76 327.549C484.572 316.811 492 299.587 492 274C492 261.224 490.059 251.353 486.351 243.775C482.609 236.129 477.145 230.98 470.442 227.575C463.812 224.208 456.063 222.593 447.755 221.795C439.477 221 430.413 221 421.092 221H421H420.908C411.587 221 402.523 221 394.245 221.795C385.937 222.593 378.188 224.208 371.558 227.575C364.855 230.98 359.391 236.129 355.649 243.775C351.941 251.353 350 261.224 350 274C350 299.685 358.241 316.906 371.809 327.606C385.242 338.199 403.402 342 422.5 342Z" fill="#1E1E1E" stroke="#E1FF27" stroke-width="6"/>
<circle cx="421" cy="241.5" r="12" fill="white"/>
<circle cx="395" cy="241.5" r="12" fill="white"/>
<circle cx="447" cy="241.5" r="12" fill="white"/>
<circle cx="421" cy="267.5" r="12" fill="white"/>
<circle cx="395" cy="315.5" r="9" fill="white"/>
<circle cx="447" cy="315.5" r="9" fill="white"/>
<circle cx="421" cy="315.5" r="12" fill="white"/>
<path d="M470 284.5C470 293.889 462.389 301.5 453 301.5C443.611 301.5 436 293.889 436 284.5C436 275.111 443.611 267.5 453 267.5C462.389 267.5 470 275.111 470 284.5ZM444.5 284.5C444.5 289.194 448.306 293 453 293C457.694 293 461.5 289.194 461.5 284.5C461.5 279.806 457.694 276 453 276C448.306 276 444.5 279.806 444.5 284.5Z" fill="white"/>
<path d="M406 284.5C406 293.889 398.389 301.5 389 301.5C379.611 301.5 372 293.889 372 284.5C372 275.111 379.611 267.5 389 267.5C398.389 267.5 406 275.111 406 284.5ZM380.5 284.5C380.5 289.194 384.306 293 389 293C393.694 293 397.5 289.194 397.5 284.5C397.5 279.806 393.694 276 389 276C384.306 276 380.5 279.806 380.5 284.5Z" fill="white"/>
</svg>
