<svg width="121" height="21" viewBox="0 0 121 21" fill="none" xmlns="http://www.w3.org/2000/svg">
<path d="M9.20312 6.10938L2.64062 15.8125H9.04688V17H0.679688V16.6328L7.1875 6.98438H1.20312V5.79688H9.20312V6.10938ZM20.5703 17H19.2891V15.75H19.2578C18.7005 16.7083 17.8802 17.1875 16.7969 17.1875C16 17.1875 15.375 16.9766 14.9219 16.5547C14.474 16.1328 14.25 15.5729 14.25 14.875C14.25 13.3802 15.1302 12.5104 16.8906 12.2656L19.2891 11.9297C19.2891 10.5703 18.7396 9.89062 17.6406 9.89062C16.6771 9.89062 15.8073 10.2188 15.0312 10.875V9.5625C15.8177 9.0625 16.724 8.8125 17.75 8.8125C19.6302 8.8125 20.5703 9.80729 20.5703 11.7969V17ZM19.2891 12.9531L17.3594 13.2188C16.7656 13.3021 16.3177 13.4505 16.0156 13.6641C15.7135 13.8724 15.5625 14.2448 15.5625 14.7812C15.5625 15.1719 15.7005 15.4922 15.9766 15.7422C16.2578 15.987 16.6302 16.1094 17.0938 16.1094C17.7292 16.1094 18.2526 15.888 18.6641 15.4453C19.0807 14.9974 19.2891 14.4323 19.2891 13.75V12.9531ZM28.2969 15.8438H28.2656V20.6797H26.9844V9H28.2656V10.4062H28.2969C28.9271 9.34375 29.849 8.8125 31.0625 8.8125C32.0938 8.8125 32.8984 9.17188 33.4766 9.89062C34.0547 10.6042 34.3438 11.5625 34.3438 12.7656C34.3438 14.1042 34.0182 15.1771 33.3672 15.9844C32.7161 16.7865 31.8255 17.1875 30.6953 17.1875C29.6589 17.1875 28.8594 16.7396 28.2969 15.8438ZM28.2656 12.6172V13.7344C28.2656 14.3958 28.4792 14.9583 28.9062 15.4219C29.3385 15.8802 29.8854 16.1094 30.5469 16.1094C31.3229 16.1094 31.9297 15.8125 32.3672 15.2188C32.8099 14.625 33.0312 13.7995 33.0312 12.7422C33.0312 11.8516 32.8255 11.1536 32.4141 10.6484C32.0026 10.1432 31.4453 9.89062 30.7422 9.89062C29.9974 9.89062 29.3984 10.151 28.9453 10.6719C28.4922 11.1875 28.2656 11.8359 28.2656 12.6172ZM56.5781 16.5312C55.75 16.9688 54.7188 17.1875 53.4844 17.1875C51.8906 17.1875 50.6146 16.6745 49.6562 15.6484C48.6979 14.6224 48.2188 13.276 48.2188 11.6094C48.2188 9.81771 48.7578 8.36979 49.8359 7.26562C50.9141 6.16146 52.2812 5.60938 53.9375 5.60938C55 5.60938 55.8802 5.76302 56.5781 6.07031V7.46875C55.776 7.02083 54.8906 6.79688 53.9219 6.79688C52.6354 6.79688 51.5911 7.22656 50.7891 8.08594C49.9922 8.94531 49.5938 10.0938 49.5938 11.5312C49.5938 12.8958 49.9661 13.9844 50.7109 14.7969C51.4609 15.6042 52.4427 16.0078 53.6562 16.0078C54.7812 16.0078 55.7552 15.7578 56.5781 15.2578V16.5312ZM69.3281 17H68.0469V12.3906C68.0469 10.724 67.4271 9.89062 66.1875 9.89062C65.5625 9.89062 65.0365 10.1328 64.6094 10.6172C64.1823 11.0964 63.9688 11.7135 63.9688 12.4688V17H62.6875V5.15625H63.9688V10.3281H64C64.6146 9.31771 65.4896 8.8125 66.625 8.8125C68.4271 8.8125 69.3281 9.89844 69.3281 12.0703V17ZM81.4766 17H80.1953V15.75H80.1641C79.6068 16.7083 78.7865 17.1875 77.7031 17.1875C76.9062 17.1875 76.2812 16.9766 75.8281 16.5547C75.3802 16.1328 75.1562 15.5729 75.1562 14.875C75.1562 13.3802 76.0365 12.5104 77.7969 12.2656L80.1953 11.9297C80.1953 10.5703 79.6458 9.89062 78.5469 9.89062C77.5833 9.89062 76.7135 10.2188 75.9375 10.875V9.5625C76.724 9.0625 77.6302 8.8125 78.6562 8.8125C80.5365 8.8125 81.4766 9.80729 81.4766 11.7969V17ZM80.1953 12.9531L78.2656 13.2188C77.6719 13.3021 77.224 13.4505 76.9219 13.6641C76.6198 13.8724 76.4688 14.2448 76.4688 14.7812C76.4688 15.1719 76.6068 15.4922 76.8828 15.7422C77.1641 15.987 77.5365 16.1094 78 16.1094C78.6354 16.1094 79.1589 15.888 79.5703 15.4453C79.987 14.9974 80.1953 14.4323 80.1953 13.75V12.9531ZM92.0625 10.2969C91.8385 10.125 91.5156 10.0391 91.0938 10.0391C90.5469 10.0391 90.0885 10.2969 89.7188 10.8125C89.3542 11.3281 89.1719 12.0312 89.1719 12.9219V17H87.8906V9H89.1719V10.6484H89.2031C89.3854 10.0859 89.6641 9.64844 90.0391 9.33594C90.4141 9.01823 90.8333 8.85938 91.2969 8.85938C91.6302 8.85938 91.8854 8.89583 92.0625 8.96875V10.2969ZM104.281 16.3594C104.281 19.2969 102.875 20.7656 100.062 20.7656C99.0729 20.7656 98.2083 20.5781 97.4688 20.2031V18.9219C98.3698 19.4219 99.2292 19.6719 100.047 19.6719C102.016 19.6719 103 18.625 103 16.5312V15.6562H102.969C102.359 16.6771 101.443 17.1875 100.219 17.1875C99.224 17.1875 98.4219 16.8333 97.8125 16.125C97.2083 15.4115 96.9062 14.4557 96.9062 13.2578C96.9062 11.8984 97.2318 10.8177 97.8828 10.0156C98.5391 9.21354 99.4349 8.8125 100.57 8.8125C101.648 8.8125 102.448 9.24479 102.969 10.1094H103V9H104.281V16.3594ZM103 13.3828V12.2031C103 11.5677 102.784 11.0234 102.352 10.5703C101.924 10.1172 101.391 9.89062 100.75 9.89062C99.9583 9.89062 99.3385 10.1797 98.8906 10.7578C98.4427 11.3307 98.2188 12.1354 98.2188 13.1719C98.2188 14.0625 98.4323 14.776 98.8594 15.3125C99.2917 15.8438 99.862 16.1094 100.57 16.1094C101.289 16.1094 101.872 15.8542 102.32 15.3438C102.773 14.8333 103 14.1797 103 13.3828Z" fill="white"/>
<rect x="113" y="14" width="8" height="2" fill="#E1FF27"/>
<rect width="8" height="2" transform="matrix(1 0 0 -1 113 13)" fill="#E1FF27"/>
<rect width="8" height="2" transform="matrix(1 0 0 -1 113 10)" fill="white"/>
</svg>
