<svg width="231" height="103" viewBox="0 0 231 103" fill="none" xmlns="http://www.w3.org/2000/svg">
<g filter="url(#filter0_d_7_56)">
<rect x="103" y="27" width="124" height="24" rx="5" fill="#E1FF27"/>
</g>
<circle cx="50" cy="53" r="50" fill="#E1FF27"/>
<circle cx="50" cy="53" r="50" stroke="black"/>
<path d="M60.1239 20.3216C75.6165 24.3266 89.9571 28.4423 89.9657 48.4008C89.9668 51.1497 89.8208 52.7244 89.3626 55.4485C88.889 58.2642 88.4247 59.8137 87.5491 62.5314C86.6888 65.2014 86.2269 66.7312 84.9404 69.2239C83.5793 71.861 82.5539 73.209 80.7295 75.5496C78.9421 77.8427 77.8699 79.097 75.7352 81.0709C73.5038 83.1344 72.1129 84.1598 69.554 85.7998C67.1126 87.3645 65.6624 88.1774 63.0046 89.2987C61.5554 89.9101 59.6225 90.5069 58.1109 90.9364C56.8831 91.2853 55.6143 90.3769 55.306 89.1384C54.1114 84.3405 49.4228 73.3478 31.0633 64.1755C6.81571 52.0615 10.1376 48.6565 12.805 39.8945C15.4723 31.1326 40.7627 15.3165 60.1239 20.3216Z" fill="black" fill-opacity="0.12"/>
<path d="M42.5 100.5L51 60.5H23L58.5 6L51 47.5H77.5L42.5 100.5Z" fill="#1E1E1E" stroke="#1E1E1E" stroke-linejoin="round"/>
<path d="M122.875 43.1641L122.734 44H116.352L116.5 43.1641H122.875ZM124.391 33.3281L116.617 44H116.047L116.172 43.2031L123.898 32.6328H124.484L124.391 33.3281ZM124.141 32.625L123.984 33.4609H118.016L118.156 32.625H124.141ZM132.992 42.4844L133.734 37.8594C133.766 37.5208 133.737 37.2266 133.648 36.9766C133.565 36.7266 133.414 36.5365 133.195 36.4062C132.977 36.2708 132.688 36.2005 132.328 36.1953C131.979 36.1849 131.664 36.25 131.383 36.3906C131.102 36.5312 130.867 36.7292 130.68 36.9844C130.497 37.2344 130.372 37.5312 130.305 37.875H129.461C129.508 37.5052 129.62 37.1641 129.797 36.8516C129.974 36.5391 130.195 36.2734 130.461 36.0547C130.732 35.8359 131.034 35.6667 131.367 35.5469C131.701 35.4271 132.055 35.3724 132.43 35.3828C132.94 35.388 133.365 35.4948 133.703 35.7031C134.042 35.9115 134.286 36.2031 134.438 36.5781C134.589 36.9531 134.641 37.3932 134.594 37.8984L133.891 42.2266C133.844 42.513 133.82 42.7943 133.82 43.0703C133.82 43.3411 133.823 43.6172 133.828 43.8984L133.812 44H132.938C132.911 43.7448 132.904 43.4922 132.914 43.2422C132.93 42.9922 132.956 42.7396 132.992 42.4844ZM133.781 39.0703L133.664 39.8047L132.242 39.7891C131.919 39.7943 131.602 39.8333 131.289 39.9062C130.982 39.974 130.698 40.0859 130.438 40.2422C130.182 40.3984 129.971 40.6042 129.805 40.8594C129.643 41.1094 129.544 41.4089 129.508 41.7578C129.471 42.0547 129.49 42.3203 129.562 42.5547C129.641 42.7891 129.773 42.9766 129.961 43.1172C130.148 43.2526 130.398 43.3229 130.711 43.3281C131.112 43.3333 131.479 43.2552 131.812 43.0938C132.146 42.9323 132.438 42.7109 132.688 42.4297C132.938 42.1484 133.135 41.8333 133.281 41.4844L133.445 42.0078C133.336 42.3151 133.19 42.6016 133.008 42.8672C132.826 43.1276 132.607 43.3568 132.352 43.5547C132.102 43.7526 131.826 43.9062 131.523 44.0156C131.227 44.125 130.909 44.1797 130.57 44.1797C130.112 44.1797 129.732 44.0755 129.43 43.8672C129.133 43.6536 128.914 43.3724 128.773 43.0234C128.638 42.6693 128.586 42.2734 128.617 41.8359C128.654 41.362 128.773 40.9531 128.977 40.6094C129.18 40.2604 129.445 39.9714 129.773 39.7422C130.102 39.513 130.469 39.3438 130.875 39.2344C131.281 39.1198 131.703 39.0599 132.141 39.0547L133.781 39.0703ZM141.883 37.2188L140.156 47.25H139.289L141.32 35.5469H142.117L141.883 37.2188ZM146.242 39.3828L146.141 40.1719C146.083 40.625 145.984 41.0911 145.844 41.5703C145.708 42.0443 145.518 42.4792 145.273 42.875C145.034 43.2708 144.721 43.5911 144.336 43.8359C143.951 44.0755 143.482 44.1849 142.93 44.1641C142.523 44.1536 142.172 44.0625 141.875 43.8906C141.578 43.7135 141.336 43.4844 141.148 43.2031C140.966 42.9219 140.833 42.6068 140.75 42.2578C140.667 41.9089 140.638 41.5495 140.664 41.1797L141.047 38.5703C141.125 38.1901 141.25 37.8073 141.422 37.4219C141.594 37.0312 141.807 36.6823 142.062 36.375C142.323 36.0625 142.63 35.8177 142.984 35.6406C143.344 35.4583 143.742 35.3724 144.18 35.3828C144.716 35.3932 145.138 35.526 145.445 35.7812C145.753 36.0365 145.971 36.3672 146.102 36.7734C146.232 37.1745 146.299 37.6042 146.305 38.0625C146.31 38.5208 146.289 38.9609 146.242 39.3828ZM145.297 40.1719L145.398 39.3672C145.43 39.0599 145.448 38.7266 145.453 38.3672C145.464 38.0078 145.427 37.6667 145.344 37.3438C145.26 37.0156 145.107 36.7448 144.883 36.5312C144.664 36.3177 144.346 36.2057 143.93 36.1953C143.612 36.1901 143.318 36.25 143.047 36.375C142.776 36.4948 142.534 36.6589 142.32 36.8672C142.107 37.0755 141.924 37.3151 141.773 37.5859C141.628 37.8516 141.516 38.125 141.438 38.4062L140.961 41.3984C140.956 41.7474 141.031 42.0677 141.188 42.3594C141.344 42.6458 141.557 42.8802 141.828 43.0625C142.099 43.2396 142.409 43.3333 142.758 43.3438C143.206 43.3698 143.583 43.2891 143.891 43.1016C144.198 42.9089 144.445 42.6536 144.633 42.3359C144.82 42.0182 144.966 41.6719 145.07 41.2969C145.174 40.9167 145.25 40.5417 145.297 40.1719ZM157.953 40.4609L158.797 40.4531C158.667 41.1667 158.44 41.8099 158.117 42.3828C157.799 42.9505 157.37 43.3958 156.828 43.7188C156.286 44.0365 155.625 44.1849 154.844 44.1641C154.219 44.1484 153.711 43.9948 153.32 43.7031C152.93 43.4115 152.635 43.0339 152.438 42.5703C152.24 42.1068 152.12 41.6068 152.078 41.0703C152.036 40.5286 152.049 40.0026 152.117 39.4922L152.516 37.0547C152.599 36.487 152.745 35.9271 152.953 35.375C153.161 34.8177 153.435 34.3203 153.773 33.8828C154.112 33.4401 154.526 33.0885 155.016 32.8281C155.51 32.5677 156.083 32.4453 156.734 32.4609C157.469 32.4818 158.047 32.6615 158.469 33C158.891 33.3385 159.185 33.7891 159.352 34.3516C159.518 34.9141 159.589 35.526 159.562 36.1875H158.68C158.695 35.6927 158.656 35.2266 158.562 34.7891C158.474 34.3516 158.284 33.9974 157.992 33.7266C157.701 33.4557 157.266 33.3099 156.688 33.2891C156.161 33.2786 155.706 33.3828 155.32 33.6016C154.94 33.8151 154.617 34.1068 154.352 34.4766C154.091 34.8464 153.883 35.2526 153.727 35.6953C153.576 36.138 153.466 36.5859 153.398 37.0391L153.016 39.5C152.964 39.8854 152.94 40.2943 152.945 40.7266C152.956 41.1536 153.021 41.5625 153.141 41.9531C153.26 42.3438 153.458 42.6667 153.734 42.9219C154.016 43.1771 154.406 43.3125 154.906 43.3281C155.536 43.3542 156.052 43.2448 156.453 43C156.854 42.7552 157.169 42.4115 157.398 41.9688C157.633 41.526 157.818 41.0234 157.953 40.4609ZM167.133 32L165.055 44H164.188L166.273 32H167.133ZM165.688 39.25L165.383 39.0547C165.451 38.6432 165.565 38.2214 165.727 37.7891C165.893 37.3516 166.104 36.9505 166.359 36.5859C166.615 36.2161 166.927 35.9219 167.297 35.7031C167.667 35.4792 168.099 35.3724 168.594 35.3828C169.021 35.3932 169.365 35.4948 169.625 35.6875C169.885 35.8802 170.073 36.1302 170.188 36.4375C170.302 36.7396 170.367 37.0703 170.383 37.4297C170.404 37.7891 170.396 38.1432 170.359 38.4922L169.438 44H168.586L169.508 38.4766C169.539 38.1484 169.542 37.8099 169.516 37.4609C169.495 37.112 169.396 36.8177 169.219 36.5781C169.042 36.3385 168.742 36.2109 168.32 36.1953C167.94 36.1901 167.599 36.2839 167.297 36.4766C167 36.6693 166.742 36.9245 166.523 37.2422C166.31 37.5547 166.133 37.888 165.992 38.2422C165.852 38.5964 165.75 38.9323 165.688 39.25ZM180.102 42.4844L180.844 37.8594C180.875 37.5208 180.846 37.2266 180.758 36.9766C180.674 36.7266 180.523 36.5365 180.305 36.4062C180.086 36.2708 179.797 36.2005 179.438 36.1953C179.089 36.1849 178.773 36.25 178.492 36.3906C178.211 36.5312 177.977 36.7292 177.789 36.9844C177.607 37.2344 177.482 37.5312 177.414 37.875H176.57C176.617 37.5052 176.729 37.1641 176.906 36.8516C177.083 36.5391 177.305 36.2734 177.57 36.0547C177.841 35.8359 178.143 35.6667 178.477 35.5469C178.81 35.4271 179.164 35.3724 179.539 35.3828C180.049 35.388 180.474 35.4948 180.812 35.7031C181.151 35.9115 181.396 36.2031 181.547 36.5781C181.698 36.9531 181.75 37.3932 181.703 37.8984L181 42.2266C180.953 42.513 180.93 42.7943 180.93 43.0703C180.93 43.3411 180.932 43.6172 180.938 43.8984L180.922 44H180.047C180.021 43.7448 180.013 43.4922 180.023 43.2422C180.039 42.9922 180.065 42.7396 180.102 42.4844ZM180.891 39.0703L180.773 39.8047L179.352 39.7891C179.029 39.7943 178.711 39.8333 178.398 39.9062C178.091 39.974 177.807 40.0859 177.547 40.2422C177.292 40.3984 177.081 40.6042 176.914 40.8594C176.753 41.1094 176.654 41.4089 176.617 41.7578C176.581 42.0547 176.599 42.3203 176.672 42.5547C176.75 42.7891 176.883 42.9766 177.07 43.1172C177.258 43.2526 177.508 43.3229 177.82 43.3281C178.221 43.3333 178.589 43.2552 178.922 43.0938C179.255 42.9323 179.547 42.7109 179.797 42.4297C180.047 42.1484 180.245 41.8333 180.391 41.4844L180.555 42.0078C180.445 42.3151 180.299 42.6016 180.117 42.8672C179.935 43.1276 179.716 43.3568 179.461 43.5547C179.211 43.7526 178.935 43.9062 178.633 44.0156C178.336 44.125 178.018 44.1797 177.68 44.1797C177.221 44.1797 176.841 44.0755 176.539 43.8672C176.242 43.6536 176.023 43.3724 175.883 43.0234C175.747 42.6693 175.695 42.2734 175.727 41.8359C175.763 41.362 175.883 40.9531 176.086 40.6094C176.289 40.2604 176.555 39.9714 176.883 39.7422C177.211 39.513 177.578 39.3438 177.984 39.2344C178.391 39.1198 178.812 39.0599 179.25 39.0547L180.891 39.0703ZM189.055 36.9375L187.836 44H186.969L188.438 35.5469H189.281L189.055 36.9375ZM191.672 35.4844L191.547 36.3438C191.453 36.3281 191.362 36.3151 191.273 36.3047C191.19 36.2891 191.107 36.2812 191.023 36.2812C190.628 36.2708 190.286 36.3542 190 36.5312C189.719 36.7083 189.482 36.9427 189.289 37.2344C189.102 37.5208 188.945 37.8359 188.82 38.1797C188.695 38.5182 188.591 38.8464 188.508 39.1641L188.195 39.2969C188.258 38.901 188.349 38.474 188.469 38.0156C188.594 37.5573 188.766 37.125 188.984 36.7188C189.208 36.3073 189.492 35.9766 189.836 35.7266C190.185 35.4714 190.615 35.3542 191.125 35.375C191.219 35.375 191.31 35.3854 191.398 35.4062C191.492 35.4271 191.583 35.4531 191.672 35.4844ZM201.5 35.5469H202.297L200.82 44.2031C200.742 44.8073 200.576 45.3516 200.32 45.8359C200.065 46.3255 199.714 46.7083 199.266 46.9844C198.818 47.2656 198.26 47.3958 197.594 47.375C197.302 47.3594 197.013 47.3047 196.727 47.2109C196.44 47.1172 196.174 46.9818 195.93 46.8047C195.685 46.6328 195.474 46.4219 195.297 46.1719L195.766 45.5703C195.984 45.862 196.245 46.0964 196.547 46.2734C196.849 46.4557 197.193 46.5521 197.578 46.5625C198.073 46.5833 198.484 46.4948 198.812 46.2969C199.146 46.1042 199.404 45.8281 199.586 45.4688C199.773 45.1094 199.898 44.7031 199.961 44.25L201.117 37.3906L201.5 35.5469ZM195.898 40.1719L196 39.3984C196.068 38.9245 196.169 38.4479 196.305 37.9688C196.44 37.4896 196.633 37.0521 196.883 36.6562C197.133 36.2552 197.451 35.9401 197.836 35.7109C198.227 35.4766 198.703 35.3698 199.266 35.3906C199.688 35.4062 200.039 35.5104 200.32 35.7031C200.607 35.8906 200.836 36.1406 201.008 36.4531C201.185 36.7656 201.305 37.1094 201.367 37.4844C201.435 37.8542 201.461 38.2188 201.445 38.5781L201.055 41.1094C200.987 41.5 200.867 41.8802 200.695 42.25C200.529 42.6198 200.318 42.9531 200.062 43.25C199.807 43.5417 199.505 43.7734 199.156 43.9453C198.807 44.112 198.417 44.1875 197.984 44.1719C197.453 44.1615 197.036 44.0286 196.734 43.7734C196.432 43.513 196.211 43.1771 196.07 42.7656C195.935 42.3542 195.862 41.9219 195.852 41.4688C195.841 41.0104 195.857 40.5781 195.898 40.1719ZM196.859 39.3828L196.773 40.1875C196.737 40.4896 196.714 40.8203 196.703 41.1797C196.698 41.5391 196.732 41.8802 196.805 42.2031C196.883 42.526 197.029 42.7943 197.242 43.0078C197.461 43.2161 197.781 43.3255 198.203 43.3359C198.594 43.3516 198.958 43.2682 199.297 43.0859C199.635 42.8984 199.922 42.651 200.156 42.3438C200.391 42.0312 200.56 41.6927 200.664 41.3281L201.133 38.4141C201.143 38.138 201.112 37.875 201.039 37.625C200.966 37.3698 200.854 37.138 200.703 36.9297C200.557 36.7214 200.372 36.5521 200.148 36.4219C199.93 36.2917 199.677 36.224 199.391 36.2188C198.943 36.1927 198.568 36.276 198.266 36.4688C197.964 36.6562 197.719 36.9089 197.531 37.2266C197.344 37.5391 197.195 37.8854 197.086 38.2656C196.982 38.6406 196.906 39.013 196.859 39.3828ZM209.852 44.1641C209.31 44.1536 208.862 44.0365 208.508 43.8125C208.159 43.5885 207.888 43.2943 207.695 42.9297C207.508 42.5599 207.385 42.151 207.328 41.7031C207.271 41.25 207.268 40.7943 207.32 40.3359L207.445 39.3516C207.508 38.8724 207.625 38.3958 207.797 37.9219C207.974 37.4427 208.203 37.0104 208.484 36.625C208.771 36.2344 209.125 35.9271 209.547 35.7031C209.969 35.474 210.458 35.3698 211.016 35.3906C211.531 35.4062 211.948 35.526 212.266 35.75C212.589 35.974 212.823 36.2656 212.969 36.625C213.12 36.9792 213.211 37.375 213.242 37.8125C213.273 38.25 213.26 38.6849 213.203 39.1172L213.109 39.8438H207.883L208.031 39.0312L212.359 39.0234L212.398 38.8047C212.445 38.4245 212.443 38.0365 212.391 37.6406C212.339 37.2448 212.203 36.9115 211.984 36.6406C211.771 36.3698 211.43 36.2214 210.961 36.1953C210.513 36.1797 210.13 36.263 209.812 36.4453C209.495 36.6276 209.234 36.875 209.031 37.1875C208.833 37.5 208.674 37.849 208.555 38.2344C208.44 38.6146 208.359 38.987 208.312 39.3516L208.188 40.3359C208.156 40.6693 208.151 41.013 208.172 41.3672C208.193 41.7161 208.263 42.0391 208.383 42.3359C208.503 42.6276 208.685 42.8646 208.93 43.0469C209.18 43.2292 209.51 43.3281 209.922 43.3438C210.339 43.3542 210.716 43.2812 211.055 43.125C211.398 42.9635 211.719 42.7396 212.016 42.4531L212.422 43.0391C212.203 43.2995 211.958 43.513 211.688 43.6797C211.417 43.8464 211.125 43.9688 210.812 44.0469C210.505 44.1302 210.185 44.1693 209.852 44.1641Z" fill="#1E1E1E"/>
<circle cx="109" cy="17" r="6" fill="#1E1E1E"/>
<circle cx="124" cy="17" r="6" fill="#E1FF27"/>
<defs>
<filter id="filter0_d_7_56" x="99" y="27" width="132" height="32" filterUnits="userSpaceOnUse" color-interpolation-filters="sRGB">
<feFlood flood-opacity="0" result="BackgroundImageFix"/>
<feColorMatrix in="SourceAlpha" type="matrix" values="0 0 0 0 0 0 0 0 0 0 0 0 0 0 0 0 0 0 127 0" result="hardAlpha"/>
<feOffset dy="4"/>
<feGaussianBlur stdDeviation="2"/>
<feComposite in2="hardAlpha" operator="out"/>
<feColorMatrix type="matrix" values="0 0 0 0 0 0 0 0 0 0 0 0 0 0 0 0 0 0 0.25 0"/>
<feBlend mode="normal" in2="BackgroundImageFix" result="effect1_dropShadow_7_56"/>
<feBlend mode="normal" in="SourceGraphic" in2="effect1_dropShadow_7_56" result="shape"/>
</filter>
</defs>
</svg>
