<svg width="103" height="103" viewBox="0 0 103 103" fill="none" xmlns="http://www.w3.org/2000/svg">
<circle cx="50" cy="53" r="50" fill="#E1FF27"/>
<circle cx="50" cy="53" r="50" stroke="black"/>
<path d="M60.1239 20.3216C75.6165 24.3266 89.9571 28.4423 89.9657 48.4008C89.9668 51.1497 89.8208 52.7244 89.3626 55.4485C88.889 58.2642 88.4247 59.8137 87.5491 62.5314C86.6888 65.2014 86.2269 66.7312 84.9404 69.2239C83.5793 71.861 82.5539 73.209 80.7295 75.5496C78.9421 77.8427 77.8699 79.097 75.7352 81.0709C73.5038 83.1344 72.1129 84.1598 69.554 85.7998C67.1126 87.3645 65.6624 88.1774 63.0046 89.2987C61.5554 89.9101 59.6225 90.5069 58.1109 90.9364C56.8831 91.2853 55.6143 90.3769 55.306 89.1384C54.1114 84.3405 49.4228 73.3478 31.0633 64.1755C6.81571 52.0615 10.1376 48.6565 12.805 39.8945C15.4723 31.1326 40.7627 15.3165 60.1239 20.3216Z" fill="black" fill-opacity="0.12"/>
<path d="M42.5 100.5L51 60.5H23L58.5 6L51 47.5H77.5L42.5 100.5Z" fill="#1E1E1E" stroke="#1E1E1E" stroke-linejoin="round"/>
</svg>
