<svg width="218" height="198" viewBox="0 0 218 198" fill="none" xmlns="http://www.w3.org/2000/svg">
<path d="M115.964 4.03587L111.924 8.07587C110.227 9.77271 109.975 12.4358 111.324 14.4208L143.512 61.8094C144.443 63.1796 145.992 64 147.648 64H158.875C163.018 64 165.363 59.2501 162.845 55.9604L123.47 4.53185C121.632 2.13174 118.102 1.89844 115.964 4.03587Z" fill="white" stroke="white" stroke-width="3" stroke-linecap="round"/>
<path d="M102.036 4.03587L106.076 8.07587C107.773 9.77271 108.025 12.4358 106.676 14.4208L74.4879 61.8094C73.5572 63.1796 72.0083 64 70.3519 64H59.1253C54.9822 64 52.6366 59.2501 55.1553 55.9604L94.5303 4.53185C96.3679 2.13174 99.8984 1.89844 102.036 4.03587Z" fill="#E1FF27" stroke="#E1FF27" stroke-width="3" stroke-linecap="round"/>
<path d="M13.4507 74H109V101V180.5V196H37.8357L30.3709 147.5L20.4178 101L3 89L13.4507 74Z" fill="#E1FF27"/>
<path d="M20.4178 101L3 89L13.4507 74H109V101M20.4178 101L30.3709 147.5L37.8357 196H109V180.5V101M20.4178 101H109M57.2441 124V180.5H71.1784V124H57.2441Z" stroke="#E1FF27" stroke-width="3" stroke-linecap="round"/>
<path d="M204.549 74H109L109.498 101V196H180.164L187.629 147.5L197.582 101L215 89L204.549 74Z" fill="white"/>
<path d="M197.582 101L215 89L204.549 74H109L109.498 101M197.582 101L187.629 147.5L180.164 196H109.498C109.498 158.9 109.498 138.1 109.498 101M197.582 101H109.498M160.756 124V180.5H146.822V124H160.756Z" stroke="white" stroke-width="3" stroke-linecap="round"/>
<path d="M70 167V125C70 121.134 66.866 118 63 118C59.134 118 56 121.134 56 125V167C56 170.866 59.134 174 63 174C66.866 174 70 170.866 70 167Z" fill="#1E1E1E"/>
<path d="M70 167V125C70 121.134 66.866 118 63 118C59.134 118 56 121.134 56 125V167C56 170.866 59.134 174 63 174C66.866 174 70 170.866 70 167Z" stroke="#1E1E1E" stroke-width="3" stroke-linecap="round"/>
<path d="M70 167V125C70 121.134 66.866 118 63 118C59.134 118 56 121.134 56 125V167C56 170.866 59.134 174 63 174C66.866 174 70 170.866 70 167Z" stroke="#1E1E1E" stroke-width="3" stroke-linecap="round"/>
<path d="M70 167V125C70 121.134 66.866 118 63 118C59.134 118 56 121.134 56 125V167C56 170.866 59.134 174 63 174C66.866 174 70 170.866 70 167Z" stroke="#1E1E1E" stroke-width="3" stroke-linecap="round"/>
<path d="M116 167V125C116 121.134 112.866 118 109 118C105.134 118 102 121.134 102 125V167C102 170.866 105.134 174 109 174C112.866 174 116 170.866 116 167Z" fill="#1E1E1E"/>
<path d="M116 167V125C116 121.134 112.866 118 109 118C105.134 118 102 121.134 102 125V167C102 170.866 105.134 174 109 174C112.866 174 116 170.866 116 167Z" stroke="#1E1E1E" stroke-width="3" stroke-linecap="round"/>
<path d="M116 167V125C116 121.134 112.866 118 109 118C105.134 118 102 121.134 102 125V167C102 170.866 105.134 174 109 174C112.866 174 116 170.866 116 167Z" stroke="#1E1E1E" stroke-width="3" stroke-linecap="round"/>
<path d="M116 167V125C116 121.134 112.866 118 109 118C105.134 118 102 121.134 102 125V167C102 170.866 105.134 174 109 174C112.866 174 116 170.866 116 167Z" stroke="#1E1E1E" stroke-width="3" stroke-linecap="round"/>
<path d="M162 167V125C162 121.134 158.866 118 155 118C151.134 118 148 121.134 148 125V167C148 170.866 151.134 174 155 174C158.866 174 162 170.866 162 167Z" fill="#1E1E1E"/>
<path d="M162 167V125C162 121.134 158.866 118 155 118C151.134 118 148 121.134 148 125V167C148 170.866 151.134 174 155 174C158.866 174 162 170.866 162 167Z" stroke="#1E1E1E" stroke-width="3" stroke-linecap="round"/>
<path d="M162 167V125C162 121.134 158.866 118 155 118C151.134 118 148 121.134 148 125V167C148 170.866 151.134 174 155 174C158.866 174 162 170.866 162 167Z" stroke="#1E1E1E" stroke-width="3" stroke-linecap="round"/>
<path d="M162 167V125C162 121.134 158.866 118 155 118C151.134 118 148 121.134 148 125V167C148 170.866 151.134 174 155 174C158.866 174 162 170.866 162 167Z" stroke="#1E1E1E" stroke-width="3" stroke-linecap="round"/>
</svg>
